<?xml version="1.0" encoding="UTF-8" standalone="no"?>
<!-- Created with Inkscape (http://www.inkscape.org/) -->

<svg
   version="1.1"
   id="svg1"
   width="256"
   height="256"
   viewBox="0 0 256 256"
   sodipodi:docname="star.svg"
   inkscape:version="1.3.2 (091e20ef0f, 2023-11-25, custom)"
   inkscape:export-filename="star.png"
   inkscape:export-xdpi="96"
   inkscape:export-ydpi="96"
   xmlns:inkscape="http://www.inkscape.org/namespaces/inkscape"
   xmlns:sodipodi="http://sodipodi.sourceforge.net/DTD/sodipodi-0.dtd"
   xmlns="http://www.w3.org/2000/svg"
   xmlns:svg="http://www.w3.org/2000/svg">
  <defs
     id="defs1" />
  <sodipodi:namedview
     id="namedview1"
     pagecolor="#505050"
     bordercolor="#ffffff"
     borderopacity="1"
     inkscape:showpageshadow="0"
     inkscape:pageopacity="0"
     inkscape:pagecheckerboard="1"
     inkscape:deskcolor="#d1d1d1"
     showgrid="false"
     showguides="false"
     inkscape:zoom="2.1269531"
     inkscape:cx="186.18182"
     inkscape:cy="186.18182"
     inkscape:window-width="1896"
     inkscape:window-height="998"
     inkscape:window-x="0"
     inkscape:window-y="0"
     inkscape:window-maximized="1"
     inkscape:current-layer="g1" />
  <g
     inkscape:groupmode="layer"
     inkscape:label="Image"
     id="g1">
    <path
       sodipodi:type="star"
       style="fill:#ffffff;stroke-width:0;stroke-linejoin:round;paint-order:fill markers stroke"
       id="path1"
       inkscape:flatsided="false"
       sodipodi:sides="5"
       sodipodi:cx="118.03122"
       sodipodi:cy="103.88981"
       sodipodi:r1="180.40961"
       sodipodi:r2="92.982063"
       sodipodi:arg1="0.94341565"
       sodipodi:arg2="1.5717342"
       inkscape:rounded="0.05"
       inkscape:randomized="0"
       d="m 223.9364,249.94363 c -4.79819,3.47922 -100.06554,-53.06624 -105.99239,-53.0718 -5.92684,-0.006 -101.300085,56.36111 -106.091734,52.8729 C 7.0606262,246.25652 31.399322,138.17838 29.573113,132.5399 27.746904,126.90142 -55.332934,53.614327 -53.496152,47.979282 -51.65937,42.344237 58.650124,32.093729 63.448309,28.614514 68.246493,25.1353 112.27357,-76.525278 118.20042,-76.519719 c 5.92684,0.0056 49.76316,101.748541 54.55481,105.236749 4.79165,3.488208 115.08172,13.945605 116.90793,19.584085 1.82621,5.638481 -81.39095,78.769615 -83.22773,84.404655 -1.83678,5.63505 22.29915,113.75865 17.50097,117.23786 z"
       inkscape:transform-center-x="29.200933"
       inkscape:transform-center-y="-0.56121782"
       transform="matrix(0.7343935,0,0,0.72930211,41.668954,62.152134)" />
  </g>
</svg>
