<?xml version="1.0" encoding="UTF-8" standalone="no"?>
<!-- Created with Inkscape (http://www.inkscape.org/) -->

<svg
   version="1.1"
   id="svg1"
   width="48"
   height="48"
   viewBox="0 0 48 48"
   sodipodi:docname="favicon.svg"
   xml:space="preserve"
   inkscape:version="1.3 (0e150ed6c4, 2023-07-21)"
   inkscape:export-filename="favicon.png"
   inkscape:export-xdpi="96"
   inkscape:export-ydpi="96"
   xmlns:inkscape="http://www.inkscape.org/namespaces/inkscape"
   xmlns:sodipodi="http://sodipodi.sourceforge.net/DTD/sodipodi-0.dtd"
   xmlns="http://www.w3.org/2000/svg"
   xmlns:svg="http://www.w3.org/2000/svg"><defs
     id="defs1" /><sodipodi:namedview
     id="namedview1"
     pagecolor="#505050"
     bordercolor="#ffffff"
     borderopacity="1"
     inkscape:showpageshadow="0"
     inkscape:pageopacity="0"
     inkscape:pagecheckerboard="1"
     inkscape:deskcolor="#d1d1d1"
     showgrid="false"
     inkscape:zoom="7.1889189"
     inkscape:cx="22.534682"
     inkscape:cy="31.993684"
     inkscape:window-width="1896"
     inkscape:window-height="998"
     inkscape:window-x="0"
     inkscape:window-y="0"
     inkscape:window-maximized="1"
     inkscape:current-layer="g1" /><g
     inkscape:groupmode="layer"
     inkscape:label="Image"
     id="g1"><circle
       style="fill:#ffffff;fill-opacity:1;stroke-width:0;stroke-linejoin:round;paint-order:fill markers stroke"
       id="path10"
       cx="24"
       cy="24"
       r="24" /><g
       id="g8"
       transform="matrix(0.36522587,0,0,0.36522587,-96.989494,-159.79166)"><path
         style="fill:#fbc43f"
         d="m 336.92813,551.36112 c -0.92144,-1.4063 -1.95971,-5.65919 -2.30725,-9.45086 -0.34755,-3.79168 -0.84152,-7.08053 -1.09771,-7.30855 -0.25619,-0.22802 -2.37375,-1.6029 -4.70569,-3.05529 -8.98658,-5.59708 -10.4973,-10.84152 -7.38253,-25.62839 2.68093,-12.72732 2.88295,-11.54414 -2.30969,-13.52723 -3.94993,-1.50849 -6.54593,-1.68116 -17.1753,-1.14244 -12.52205,0.63465 -12.52205,0.63465 -12.20732,-2.09784 0.31473,-2.73249 0.31473,-2.73249 10.30507,-3.23249 9.64845,-0.48289 10.03434,-0.59209 11.27626,-3.19095 1.76462,-3.69265 4.85097,-4.50795 7.56848,-1.99929 3.39157,3.13091 16.66492,5.84911 16.66492,3.41275 0,-3.61548 -7.42903,-7.22251 -14.87543,-7.22251 -2.01571,0 -3.17846,-0.59445 -3.56889,-1.82456 -0.3185,-1.00351 -2.03632,-2.46601 -3.81738,-3.25 -3.26896,-1.43894 -4.53479,-4.99609 -1.9633,-5.51711 0.70125,-0.14208 0.81375,-0.0296 0.25,0.25 -5.23004,2.59377 10.31786,9.34167 21.52422,9.34167 2.87755,0 3.47005,-0.37376 3.56678,-2.25 0.10544,-2.04503 0.16199,-2.0678 0.62079,-0.25 0.27763,1.1 2.02717,4.77116 3.88786,8.15813 4.15092,7.55579 3.7379,9.34187 -2.16021,9.34187 -6.54188,0 -7.46444,1.50008 -7.46444,12.13717 0,12.42669 0.0195,12.44993 11.20596,13.32503 21.08079,1.64912 24.04202,18.54573 3.45928,19.73848 -5.90956,0.34245 -7.14229,3.29376 -4.59706,11.00589 1.97537,5.98545 -1.49859,9.11856 -4.69742,4.23652 z"
         id="path9" /><path
         style="fill:#f82c31"
         d="m 323.05737,474.46351 c -12.42872,-3.19275 -17.20684,-8.52076 -7.66821,-8.55072 0.91752,-0.003 6.57584,-2.92788 12.57404,-6.5 11.08666,-6.60245 13.21884,-7.30118 16.65991,-5.45958 3.55874,1.90458 2.46297,6.35983 -3.06574,12.46482 -2.75,3.03665 -5,6.41641 -5,7.51059 0,2.40256 -5.39711,2.61641 -13.5,0.53489 z"
         id="path8" /></g></g></svg>
