<?xml version="1.0" encoding="UTF-8" standalone="no"?>
<!-- Created with Inkscape (http://www.inkscape.org/) -->

<svg
   version="1.1"
   id="svg1"
   width="48"
   height="48"
   viewBox="0 0 48 48"
   sodipodi:docname="hyprland.svg"
   inkscape:export-filename="hyprland.png"
   inkscape:export-xdpi="512"
   inkscape:export-ydpi="512"
   inkscape:version="1.3 (0e150ed6c4, 2023-07-21)"
   xmlns:inkscape="http://www.inkscape.org/namespaces/inkscape"
   xmlns:sodipodi="http://sodipodi.sourceforge.net/DTD/sodipodi-0.dtd"
   xmlns="http://www.w3.org/2000/svg"
   xmlns:svg="http://www.w3.org/2000/svg">
  <defs
     id="defs1" />
  <sodipodi:namedview
     id="namedview1"
     pagecolor="#505050"
     bordercolor="#ffffff"
     borderopacity="1"
     inkscape:showpageshadow="0"
     inkscape:pageopacity="0"
     inkscape:pagecheckerboard="1"
     inkscape:deskcolor="#d1d1d1"
     showgrid="false"
     inkscape:zoom="5.8336309"
     inkscape:cx="-17.570532"
     inkscape:cy="42.169277"
     inkscape:window-width="1896"
     inkscape:window-height="998"
     inkscape:window-x="0"
     inkscape:window-y="0"
     inkscape:window-maximized="1"
     inkscape:current-layer="g1" />
  <g
     inkscape:groupmode="layer"
     inkscape:label="Image"
     id="g1">
    <path
       style="fill:#ffffff;fill-opacity:1"
       d="M 17.5,46.796293 C 15.85,46.221096 13.207078,44.569123 11.626839,43.12524 10.0466,41.681358 8.1341004,39.051953 7.376839,37.282119 6.6195775,35.512284 6,32.01033 6,29.5 6,26.98967 6.6914215,23.280958 7.5364923,21.258419 8.381563,19.23588 11.594933,14.187834 14.677313,10.040538 17.759694,5.893242 21.42547,1.3741073 21.831458,1.683937 c 0.07304,0.055738 0.190565,0.7365049 0.151201,2.3353262 -0.02458,0.9983177 -0.02438,0.6299097 -0.03374,2.3457226 -0.0034,0.6180704 -3.673049,5.4835012 -5.868196,8.5232352 -1.662771,2.302527 -2.926165,3.574752 -4.005164,5.476074 -1.35741,2.391913 -2.3441858,5.266231 -2.5792307,6.65745 -0.3738195,2.212619 -0.1634509,5.456848 0.4803345,7.407537 0.6299982,1.908912 2.7086342,4.843242 4.6191912,6.520733 C 17.480469,43.482743 18.92008,44 23.084456,44 c 2.758175,0 6.362417,-0.696847 8.009426,-1.548549 1.64701,-0.851701 3.872981,-2.989201 4.946602,-4.75 1.220353,-2.001444 1.953441,-5.006546 1.955778,-8.017192 0.0021,-2.648658 -0.297039,-4.672474 -1.129722,-7 -0.45591,-1.274364 -3.245729,-5.136177 -5.922325,-8.778449 -2.515841,-3.423518 -3.904571,-5.7804115 -4.938774,-7.6860336 0,0 -0.0054,-1.5608038 -0.0054,-2.1536359 0,-0.8884915 -0.07261,-2.0876306 0.09351,-2.329224 0.406011,-0.5904878 1.777423,1.6325356 5.769923,6.9515382 3.224886,4.2963503 6.607431,9.2662903 7.516768,11.0443113 0.909337,1.778022 1.931952,5.265464 2.272478,7.749873 0.428717,3.127833 0.0939,5.892411 -1.088616,8.988795 -0.939264,2.459429 -3.039397,5.592193 -4.666961,6.961698 -1.627564,1.369505 -4.632733,2.954793 -6.678153,3.522862 C 27.173525,47.524063 24.375,47.955829 23,47.915476 21.625,47.875122 19.15,47.37149 17.5,46.796293 Z"
       id="path1"
       sodipodi:nodetypes="ssssssssssssssssscsssssssssssss" />
  </g>
</svg>
