<?xml version="1.0" encoding="UTF-8" standalone="no"?>
<svg
   version="1.1"
   id="svg41117"
   viewBox="0 0 256 256"
   height="256"
   width="256"
   preserveAspectRatio="xMidYMid"
   sodipodi:docname="playstation.svg"
   inkscape:version="1.3 (0e150ed6c4, 2023-07-21)"
   inkscape:export-filename="playstation.png"
   inkscape:export-xdpi="96"
   inkscape:export-ydpi="96"
   xmlns:inkscape="http://www.inkscape.org/namespaces/inkscape"
   xmlns:sodipodi="http://sodipodi.sourceforge.net/DTD/sodipodi-0.dtd"
   xmlns="http://www.w3.org/2000/svg"
   xmlns:svg="http://www.w3.org/2000/svg"
   xmlns:rdf="http://www.w3.org/1999/02/22-rdf-syntax-ns#"
   xmlns:cc="http://creativecommons.org/ns#"
   xmlns:dc="http://purl.org/dc/elements/1.1/">
  <sodipodi:namedview
     id="namedview1"
     pagecolor="#505050"
     bordercolor="#ffffff"
     borderopacity="1"
     inkscape:showpageshadow="0"
     inkscape:pageopacity="0"
     inkscape:pagecheckerboard="1"
     inkscape:deskcolor="#d1d1d1"
     showgrid="false"
     inkscape:zoom="0.9043272"
     inkscape:cx="-25.433272"
     inkscape:cy="173.60973"
     inkscape:window-width="1896"
     inkscape:window-height="998"
     inkscape:window-x="0"
     inkscape:window-y="0"
     inkscape:window-maximized="1"
     inkscape:current-layer="svg41117" />
  <metadata
     id="metadata41126">
    <rdf:RDF>
      <cc:Work
         rdf:about="">
        <dc:format>image/svg+xml</dc:format>
        <dc:type
           rdf:resource="http://purl.org/dc/dcmitype/StillImage" />
      </cc:Work>
    </rdf:RDF>
  </metadata>
  <defs
     id="defs41119">
    <style
       id="style41121">&#10;&#10;      .cls-2 {&#10;        fill: #ffffff;&#10;      }&#10;    </style>
  </defs>
  <path
     style="fill:#ffffff;fill-opacity:1;fill-rule:evenodd;stroke-width:1.26263"
     class="cls-2"
     id="path-1"
     d="m 250.77669,179.67922 c -4.88345,6.16111 -16.84792,10.55622 -16.84792,10.55622 0,0 -89.00391,31.96963 -89.00391,31.96963 0,0 0,-23.57689 0,-23.57689 0,0 65.50082,-23.33839 65.50082,-23.33839 7.43309,-2.66318 8.57445,-6.428 2.53259,-8.40409 -6.0305,-1.98178 -16.95014,-1.41393 -24.3889,1.26061 0,0 -43.64451,15.37155 -43.64451,15.37155 0,0 0,-24.46841 0,-24.46841 0,0 2.51556,-0.85177 2.51556,-0.85177 0,0 12.61182,-4.46325 30.34559,-6.42799 17.73378,-1.95339 39.44812,0.26688 56.49481,6.72895 19.21017,6.07025 21.37365,15.01948 16.49587,21.18058 z m -97.37958,-40.14658 c 0,0 0,-60.293685 0,-60.293685 0,-7.081014 -1.30605,-13.599865 -7.94982,-15.44536 -5.08788,-1.629715 -8.2451,3.094748 -8.2451,10.170084 0,0 0,150.989761 0,150.989761 0,0 -40.720098,-12.92413 -40.720098,-12.92413 0,0 0,-180.02931 0,-180.02931 17.313568,3.214003 42.537188,10.811755 56.097318,15.382904 34.48518,11.839542 46.17708,26.575104 46.17708,59.776946 0,32.36144 -19.97675,44.62687 -45.35938,32.37279 z M 21.765157,196.16374 C 2.0439302,190.61023 -1.2382089,179.03756 7.7507636,172.37107 16.058325,166.21565 30.186286,161.58203 30.186286,161.58203 c 0,0 58.38573,-20.76038 58.38573,-20.76038 0,0 0,23.66775 0,23.66775 0,0 -42.014784,15.03651 -42.014784,15.03651 -7.421723,2.66318 -8.56309,6.43368 -2.532585,8.40977 6.036183,1.97609 16.961505,1.41393 24.394585,-1.25493 0,0 20.152784,-7.31384 20.152784,-7.31384 0,0 0,21.17491 0,21.17491 -1.277643,0.22713 -2.702934,0.45427 -4.020333,0.67573 -20.158466,3.2935 -41.628653,1.91932 -62.786526,-5.05381 z m 216.041983,9.3751 c 2.54962,0 4.94024,0.98806 6.7403,2.81083 1.80008,1.79439 2.7938,4.1907 2.7938,6.73464 0,2.55529 -0.99372,4.94024 -2.7938,6.73463 -1.80006,1.81142 -4.19068,2.79947 -6.7403,2.79947 -2.54962,0 -4.93457,-0.98805 -6.74032,-2.79947 -1.80006,-1.79439 -2.78811,-4.17934 -2.78811,-6.73463 0,-5.25825 4.27018,-9.54547 9.52843,-9.54547 z m -7.92711,9.54547 c 0,2.11805 0.82337,4.11118 2.32249,5.59894 1.49342,1.51046 3.49223,2.32815 5.60462,2.32815 4.37806,0 7.92709,-3.55469 7.92709,-7.92709 0,-2.12374 -0.81769,-4.11687 -2.32247,-5.61031 -1.49344,-1.51046 -3.49225,-2.32248 -5.60462,-2.32248 -2.11239,0 -4.1112,0.81202 -5.60462,2.32248 -1.49912,1.49344 -2.32249,3.48657 -2.32249,5.61031 z m 10.80607,-5.13899 c 1.04484,0.45995 1.57293,1.34578 1.57293,2.6064 0,0.64735 -0.13629,1.19247 -0.41452,1.61836 -0.19875,0.30663 -0.48268,0.55649 -0.80067,0.77226 0.24985,0.14765 0.47131,0.32367 0.636,0.5281 0.22712,0.29528 0.35773,0.76658 0.37477,1.40825 0,0 0.0511,1.35715 0.0511,1.35715 0.017,0.36342 0.0398,0.64166 0.0966,0.81202 0.0568,0.24984 0.16467,0.40885 0.30095,0.45996 0,0 0.14197,0.0682 0.14197,0.0682 0,0 0,0.15332 0,0.15332 0,0 0,0.23282 0,0.23282 0,0 0,0.23281 0,0.23281 0,0 -0.23282,0 -0.23282,0 0,0 -1.6865,0 -1.6865,0 0,0 -0.13628,0 -0.13628,0 0,0 -0.0682,-0.11919 -0.0682,-0.11919 -0.0568,-0.11351 -0.0965,-0.24417 -0.13628,-0.41452 -0.0284,-0.15332 -0.0568,-0.4202 -0.0739,-0.82905 0,0 -0.0852,-1.68651 -0.0852,-1.68651 -0.0227,-0.58487 -0.22146,-0.94829 -0.59623,-1.14136 -0.23282,-0.10783 -0.61896,-0.15899 -1.14137,-0.15899 0,0 -2.89033,0 -2.89033,0 0,0 0,4.11687 0,4.11687 0,0 0,0.23281 0,0.23281 0,0 -0.23849,0 -0.23849,0 0,0 -1.37419,0 -1.37419,0 0,0 -0.23281,0 -0.23281,0 0,0 0,-0.23281 0,-0.23281 0,0 0,-10.14737 0,-10.14737 0,0 0,-0.23282 0,-0.23282 0,0 0.23281,0 0.23281,0 0,0 4.69607,0 4.69607,0 0.80635,0 1.48208,0.11919 2.00449,0.36341 z m -5.08788,4.27586 c 0,0 2.94143,0 2.94143,0 0.59055,0 1.06187,-0.10796 1.39689,-0.32935 0.30664,-0.22146 0.45428,-0.62463 0.45428,-1.2095 0,-0.63599 -0.2101,-1.05052 -0.65301,-1.27197 -0.24417,-0.1192 -0.58489,-0.18739 -1.01646,-0.18739 0,0 -3.12313,0 -3.12313,0 z" />
</svg>
